<?xml version="1.0" encoding="UTF-8"?>
<svg id="Layer_1" xmlns="http://www.w3.org/2000/svg" version="1.1" viewBox="0 0 1080 588.81">
  <!-- Generator: Adobe Illustrator 30.3.0, SVG Export Plug-In . SVG Version: 2.1.3 Build 182)  -->
  <defs>
    <style>
      .st0 {
        fill: #fff;
      }

      .st1 {
        fill: #fd5318;
      }

      .st2 {
        fill: #fefefe;
      }
    </style>
  </defs>
  <path class="st2" d="M834.42,549.02l-350.08.58c49.9-25.53,88.33-59.2,106.44-113.73l235.72-.23c16.08-.02,30.91-6.62,41.18-17.49,15.9-16.83,14.25-41.85-3.35-56.48-9.98-8.29-22.8-11.12-35.98-11.19l-133.46-.67c-33.08-.17-64.81-11.09-91.55-29.71-36.21-25.22-57.74-64.3-59.2-108.78-3.19-97.41,91.99-165.42,183.48-165.57l223.59-.35c11.26-18.91,34.03-25.73,53.75-18.43s31.69,27.66,27.69,49.13c-3.7,17.97-17.31,30.06-33.6,34.1-17.78,4.41-36.2-2.03-47.21-17.33l-78.37-.07c-2.01,0-5.76,1.94-6.63,3.53-3.74,6.91,9.66,13.42,4.59,22.82-2.59,4.8-7.18,7.53-13.35,7.54l-107.23.16-73.26,71.58c-6.44,14.61-.39,30.96,12.93,39.55,11.34,7.21,23.58,8.5,37.05,8.54l130.18.38c26.7.08,52.23,7.9,75.4,19.96,27.97,14.57,50.27,36.95,62.73,65.96,24.42,56.85,9.75,121.71-35.72,163.92-33.57,31.17-77.3,52.18-125.74,52.26ZM1010.75,68.2c0-12.16-9.86-22.03-22.03-22.03s-22.03,9.86-22.03,22.03,9.86,22.03,22.03,22.03,22.03-9.86,22.03-22.03ZM741.4,99.48l100.31.19,18.38-19.92-125.57-.22-92.18,91.89-10.85,40.7c13.13-16.62,25.25-30.15,39.97-44.5l69.94-68.13Z"/>
  <path class="st1" d="M129.11,546.9c-11.4,13.3-26.13,19.64-43.66,17.34-15.37-2.01-30.21-12.23-36.14-28.08-4.7-12.57-3.2-25.27,3.83-36.28,8.64-13.53,23.11-21.11,38.2-21.57,16.18-.49,31.56,6.31,40.53,20.27l85.51-.29c3.62-1.88,8.77-8.17,9.91-10.95l-9.47-13.12c2.59-4.51,7.28-11.37,11.89-11.38l119.73-.03,74.41-72.8c2.92-10.36.63-20.76-6.11-29.14-8.06-5.59-17.98-10.97-28.5-10.98l-109.07-.08c-32.38-.02-63.05-4.3-91.55-18.53-61.39-30.66-91.76-96.88-73.92-163.68,19.82-74.24,102.61-122.6,176.69-122.72l300.03-.5,27.18,1.88-37.5,22.46c-31.6,22.22-54.65,53.13-66.11,91.59l-226.93.22c-13.03.01-25.49,5.96-35.53,12.94-10.44,7.26-14.93,19.96-14.96,31.72-.07,24.54,21.94,40.83,49.51,40.83l109.65-.02c60.29-.01,120.89,23.37,148.7,77.88,31.07,60.9,12.52,130.79-38.4,175.39-34.72,30.41-77.02,44.86-123.38,48.04l-254.55-.42ZM291.67,507.65l77.88-.47,85.25-84.41c7.35-7.28,13.44-11.73,16.16-22.41,3.34-13.11,8.17-26.8,8.13-40.41-.1-29.56-12.82-55.43-35.05-73.87l-7.76-6.46c8.91,10.36,16.49,19.13,20.62,32.2,9.53,29.74,6,61.15-7.86,88.97l-88.62,86.64-106.64.13-19.31,24.57c13.06-3.36,22.83-4.71,35.34-4.63l21.87.15ZM110.59,534.41c4.97-5.14,5.75-13.76,3.66-20.29-1.95-6.09-7.96-11.48-14.95-13.61-9.61-2.92-19.06,1.1-24.74,7.94s-7.06,18.57-.57,26.11c9.13,10.6,26.79,10,36.61-.15Z"/>
  <path class="st0" d="M909.67,177.07l-117.92-.15c-5.1,0-8.73-7.48-8.56-11.24.17-3.62,4.66-11.23,9.39-11.24l117.18-.22c5.77-10.84,16.44-17.37,27.57-17.6s23.73,6.15,28.84,17.05c4.81,10.26,3.2,21.25-2.93,29.85-5.69,7.99-16.05,13.16-26.87,12.75-12.43-.48-23.08-7.23-26.71-19.2ZM951.04,166.04c0-7.18-5.82-13-13-13s-13,5.82-13,13,5.82,13,13,13,13-5.82,13-13Z"/>
  <path class="st0" d="M305.92,434.63l-126.96.12c-6.64,12.68-20.57,19.4-35.06,16.73-12.71-2.34-23.84-14.92-23.51-29.42s12.65-25.45,25.52-27.59c14.83-2.47,27.43,3.99,34.17,17.73l124.68.02c3.3,1.69,8.16,6.58,8.48,9.49.38,3.5-2.83,8.14-7.32,12.93ZM160.3,431.39c3.06-2.75,4.94-9.02,3.85-12.63-.97-3.22-5.75-7.53-9.47-8.24-6.69-1.28-13.16,1.53-15.46,6.88s-.69,11.58,4.15,15.14,10.86,4.32,16.92-1.15Z"/>
</svg>